<?xml version="1.0" encoding="UTF-8" standalone="no"?>
<!-- Created with Inkscape (http://www.inkscape.org/) -->

<svg
   version="1.1"
   id="svg1"
   width="1720"
   height="1220"
   viewBox="0 0 1720 1220"
   sodipodi:docname="logo.svg"
   inkscape:version="1.4.2 (2aeb623e1d, 2025-05-12)"
   xmlns:inkscape="http://www.inkscape.org/namespaces/inkscape"
   xmlns:sodipodi="http://sodipodi.sourceforge.net/DTD/sodipodi-0.dtd"
   xmlns:xlink="http://www.w3.org/1999/xlink"
   xmlns="http://www.w3.org/2000/svg"
   xmlns:svg="http://www.w3.org/2000/svg">
  <defs
     id="defs1">
    <linearGradient
       id="linearGradient17"
       inkscape:collect="always">
      <stop
         style="stop-color:#a855f7;stop-opacity:1;"
         offset="0"
         id="stop17" />
      <stop
         style="stop-color:#3b82f6;stop-opacity:1;"
         offset="1"
         id="stop18" />
    </linearGradient>
    <linearGradient
       id="linearGradient15"
       inkscape:collect="always">
      <stop
         style="stop-color:#3b82f6;stop-opacity:1;"
         offset="0"
         id="stop15" />
      <stop
         style="stop-color:#a855f7;stop-opacity:1;"
         offset="1"
         id="stop16" />
    </linearGradient>
    <linearGradient
       id="linearGradient13"
       inkscape:collect="always">
      <stop
         style="stop-color:#3b82f6;stop-opacity:1;"
         offset="0"
         id="stop13" />
      <stop
         style="stop-color:#a855f7;stop-opacity:1;"
         offset="1"
         id="stop14" />
    </linearGradient>
    <linearGradient
       inkscape:collect="always"
       xlink:href="#linearGradient13"
       id="linearGradient14"
       x1="283.39908"
       y1="1115.3427"
       x2="1387.3668"
       y2="1115.3427"
       gradientUnits="userSpaceOnUse"
       gradientTransform="translate(-226.14322,-278.64076)" />
    <linearGradient
       inkscape:collect="always"
       xlink:href="#linearGradient15"
       id="linearGradient16"
       x1="1287.5293"
       y1="751.67798"
       x2="1872.1071"
       y2="751.67798"
       gradientUnits="userSpaceOnUse"
       gradientTransform="translate(-226.14322,-278.64076)" />
    <linearGradient
       inkscape:collect="always"
       xlink:href="#linearGradient17"
       id="linearGradient18"
       x1="1197.2703"
       y1="493.29486"
       x2="1746.5623"
       y2="493.29486"
       gradientUnits="userSpaceOnUse"
       gradientTransform="translate(-226.14322,-278.64076)" />
  </defs>
  <sodipodi:namedview
     id="namedview1"
     pagecolor="#ffffff"
     bordercolor="#000000"
     borderopacity="0.25"
     inkscape:showpageshadow="2"
     inkscape:pageopacity="0.0"
     inkscape:pagecheckerboard="0"
     inkscape:deskcolor="#d1d1d1"
     inkscape:zoom="0.24763068"
     inkscape:cx="1179.1754"
     inkscape:cy="761.21424"
     inkscape:window-width="1920"
     inkscape:window-height="937"
     inkscape:window-x="0"
     inkscape:window-y="0"
     inkscape:window-maximized="1"
     inkscape:current-layer="g1" />
  <g
     inkscape:groupmode="layer"
     inkscape:label="Image"
     id="g1">
    <path
       style="fill:url(#linearGradient18);fill-opacity:1;stroke-width:2.11978"
       d="m 1058.7978,332.89762 c 11.4717,-35.92817 20.6948,-65.48674 20.4957,-65.68567 -0.1992,-0.19903 -8.3896,3.92189 -18.2018,9.15739 -9.8121,5.23549 -17.9279,9.43137 -18.0351,9.32417 -0.4399,-0.43992 2.0369,-12.99981 4.6298,-23.47696 13.2267,-53.44657 38.8854,-97.47353 78.2183,-134.21176 41.926,-39.160286 95.6815,-63.819716 154.0403,-70.663396 10.3559,-1.21445 34.4053,-1.59811 45.4481,-0.72505 31.2818,2.47317 58.8787,9.40513 87.1652,21.89476 26.8402,11.85097 54.9155,30.313656 74.3534,48.895776 l 6.2173,5.94361 13.4723,-6.9007 c 7.4097,-3.79537 13.6249,-7.02959 13.8114,-7.18715 0.1866,-0.1575 -3.7819,-4.31125 -8.8183,-9.23043 -38.1607,-37.271296 -90.9211,-63.660716 -151.5124,-75.782536 -16.2661,-3.2542 -21.7547,-3.81556 -42.8289,-4.38069 -24.7041,-0.66245 -44.8579,0.9784 -67.1546,5.46751 -75.5786,15.2166 -143.7091,60.91106 -186.7461,125.248966 -22.5512,33.71296 -37.6359,71.62627 -44.8391,112.69751 -1.113,6.34735 -2.5032,12.17316 -3.1343,13.13628 -1.0384,1.58492 -1.4283,1.69877 -4.6281,1.352 -1.9218,-0.20836 -11.58332,-2.95753 -21.47002,-6.10952 -9.8866,-3.15194 -18.0555,-5.65872 -18.1533,-5.57059 -0.097,0.0881 14.2034,27.1456 31.77972,60.12775 17.5766,32.98219 32.4197,60.85937 32.9846,61.94933 0.7767,1.49859 1.1517,1.7466 1.5379,1.01746 0.2809,-0.53031 9.8964,-30.35995 21.368,-66.28806 z"
       id="path28" />
    <path
       style="fill:url(#linearGradient16);fill-opacity:1;stroke-width:2.11978"
       d="m 1144.206,686.07214 c 5.6365,-3.4127 30.3731,-19.0198 54.9701,-34.6824 24.5971,-15.66259 46.2697,-29.19808 48.1614,-30.07891 4.2472,-1.97772 7.9003,-2.04159 16.5601,-0.28948 9.9195,2.007 21.6837,2.77765 43.2715,2.83458 19.3354,0.0511 29.7505,-0.54981 43.6613,-2.51888 35.2885,-4.99486 72.8748,-17.95597 104.185,-35.92685 34.3063,-19.69044 66.6801,-48.24634 89.9416,-79.33434 27.7033,-37.02469 45.5311,-78.51346 54.1696,-126.06369 1.1418,-6.28434 2.4418,-12.01911 2.8895,-12.74389 1.2431,-2.01321 3.4362,-2.21736 8.0963,-0.75346 26.9608,8.46916 35.4068,11.03008 35.8473,10.869 0.2865,-0.10473 -14.3159,-28.04022 -32.4497,-62.07875 -18.1339,-34.03854 -33.1426,-61.7165 -33.3524,-61.50659 -0.6027,0.60265 -42.7617,132.80344 -42.4505,133.11466 0.1527,0.15347 8.3059,-4.00395 18.1167,-9.2386 9.8108,-5.23464 17.9571,-9.39993 18.1031,-9.25615 0.5321,0.52395 -1.4321,11.07816 -4.095,22.00235 -11.614,47.64598 -33.46,88.47538 -65.3305,122.09928 -32.4271,34.21116 -69.4368,57.60373 -114.2143,72.19131 -42.0952,13.7137 -87.6821,16.54705 -131.0311,8.14377 -9.8148,-1.90261 -12.0789,-2.0053 -15.2254,-0.6907 -1.2612,0.52706 -21.4688,12.93673 -44.9055,27.57708 -23.4368,14.64036 -43.1097,26.74886 -43.7179,26.90796 -0.7186,0.188 -1.2564,-0.264 -1.5369,-1.2918 -0.5049,-1.8499 -2.9018,-30.69076 -5.8533,-70.4314 -1.1498,-15.48285 -2.3952,-29.28862 -2.7674,-30.67949 -0.5478,-2.04629 -1.9354,-3.54808 -7.2736,-7.87111 -17.9863,-14.56579 -40.4517,-38.75883 -47.8757,-51.55739 -6.3953,-11.0252 -9.4527,-11.82158 -18.2567,-4.75591 -2.3064,1.85099 -5.4979,4.18785 -7.0924,5.19288 -1.5942,1.00504 -3.0673,2.35375 -3.2731,2.99692 -0.5686,1.77554 1.4334,5.40324 7.8105,14.15347 9.9359,13.63287 17.3904,22.12162 33.702,38.37606 12.8301,12.78549 15.8951,16.19738 16.453,18.31491 0.3772,1.43118 1.1735,8.85987 1.7696,16.50803 1.1008,14.12317 5.3476,67.18543 7.8415,97.98013 0.7536,9.3058 1.7013,17.3186 2.1058,17.8061 0.4047,0.4875 1.1996,0.8863 1.7666,0.8863 0.5668,0 5.6425,-2.7922 11.2789,-6.205 z"
       id="path27" />
    <path
       style="fill:#a855f7;fill-opacity:1;stroke-width:2.11978"
       d="m 1322.7575,1183.6942 c 29.4806,-5.1411 52.6318,-26.128 60.281,-54.6455 7.2301,-26.9549 0.6339,-55.6767 -17.1261,-74.5711 -15.1674,-16.1362 -33.6458,-23.8698 -56.7993,-23.7717 -43.854,0.1845 -75.6337,32.417 -75.6337,76.7087 0,34.2033 20.2272,62.9907 51.6779,73.5483 11.0876,3.7219 25.7933,4.7902 37.6002,2.7313 z"
       id="path26" />
    <path
       id="path25"
       style="fill:url(#linearGradient14);fill-opacity:1;stroke-width:2.11978"
       d="m 57.255847,488.77784 v 344.5923 344.59246 h 55.284003 55.284 v -31.5525 -31.5483 l 9.3278,9.5968 c 5.1299,5.279 12.3788,12.1097 16.1095,15.1824 31.4444,25.896 71.5056,40.891 119.3866,44.6809 8.0442,0.6367 45.1189,-0.2256 53.247,-1.238 33.4689,-4.1687 60.8862,-12.1376 87.5071,-25.4331 23.9113,-11.9428 42.0157,-24.9862 60.7242,-43.7495 41.2383,-41.3589 64.7932,-96.1309 69.5677,-161.76556 1.0107,-13.8949 0.4629,-43.7516 -1.035,-56.3604 -7.1888,-60.5126 -30.2545,-110.5969 -68.5616,-148.8855 -18.2064,-18.1976 -36.8818,-31.4794 -61.0348,-43.4058 -30.4721,-15.0467 -62.1084,-23.4405 -98.698,-26.1909 -13.318,-1.001 -42.1561,-0.4428 -53.5865,1.0392 -48.3594,6.27 -87.0624,24.3571 -119.4735,55.8306 l -8.0527,7.8208 V 615.38073 488.77784 h -57.9958 z m 820.784833,189.4718 c -47.5855,5.9326 -86.8003,20.5405 -121.85823,45.3888 -28.8573,20.4536 -53.8684,48.5884 -70.7973,79.645 -41.7585,76.6069 -41.4812,178.9737 0.6873,254.33186 17.5903,31.4352 44.0946,60.0947 74.2709,80.3073 39.17733,26.2418 87.55873,42.038 141.09353,46.068 11.0254,0.8301 42.0151,0.8512 52.9118,0.037 58.90362,-4.402 107.39752,-21.8885 145.83822,-52.5927 7.1641,-5.7221 26.0835,-24.0888 27.3586,-26.5593 0.5023,-0.973 -4.7939,-7.4114 -28.8697,-35.1089 -16.2151,-18.6541 -30.2207,-34.7857 -31.126,-35.8499 l -1.6477,-1.9336 -6.6574,6.3926 c -25.2775,24.2617 -58.0534,39.976 -94.49602,45.3103 -36.1589,5.2926 -75.2709,1.552 -104.6888,-10.0111 -45.3313,-17.8178 -75.7232,-52.0587 -87.52373,-98.61106 -0.9219,-3.6371 -1.6767,-6.9418 -1.6767,-7.3405 0,-0.5128 56.97213,-0.7246 194.60973,-0.7246 h 194.60972 l 0.5798,-9.3236 c 0.9929,-16.0164 0.6221,-48.105 -0.6832,-59.1842 -5.9307,-50.3399 -21.8912,-92.3741 -48.5398,-127.816 -39.1949,-52.1282 -96.3038,-83.6178 -167.60322,-92.4174 -14.1271,-1.7435 -51.8363,-1.7481 -65.7918,-0.01 z m 32.2149,91.7549 c 19.6854,-0.023 33.0219,1.9758 49.8562,7.4771 42.11132,13.7617 73.42652,46.3187 85.83042,89.2337 1.2571,4.3493 2.7678,10.6081 3.3578,13.9067 0.5897,3.2989 1.2216,6.6835 1.4034,7.5229 l 0.3312,1.5277 H 910.52058 770.00655 l 0.4678,-3.5233 c 1.407,-10.6062 7.87453,-30.5368 13.60473,-41.9153 17.9561,-35.6559 50.0247,-60.807 89.5482,-70.2384 12.6721,-3.0239 21.395,-3.9736 36.6283,-3.9911 z m -590.82613,5.5064 c 6.7154,0 15.2643,0.3749 18.9952,0.8322 55.6012,6.8152 98.1851,40.1399 117.2999,91.7964 13.4185,36.2626 13.8349,83.3887 1.0681,120.9061 -15.4112,45.28856 -49.4509,77.88476 -94.2887,90.28916 -14.5745,4.032 -22.8134,5.1296 -40.3586,5.3658 -8.5809,0.1144 -16.518,0.082 -17.6372,-0.075 -1.1193,-0.1548 -5.4179,-0.7457 -9.5514,-1.3123 -34.7953,-4.7698 -67.3502,-22.8095 -88.9976,-49.3139 -17.0703,-20.9004 -27.8998,-46.63296 -32.546,-77.34286 -1.6712,-11.0453 -1.6493,-42.5213 0.037,-53.421 3.9126,-25.2868 12.2206,-47.474 24.7749,-66.1685 22.8671,-34.0513 58.8101,-55.4042 102.2131,-60.7242 3.7308,-0.4573 12.2756,-0.8322 18.9911,-0.8322 z" />
    <path
       style="display:none;fill:#000000"
       d="M 0,1006.56 V 0 H 1006.56 2013.12 V 1006.56 2013.12 H 1006.56 0 Z"
       id="path1" />
  </g>
</svg>
